<?xml version="1.0" encoding="utf-8"?>
<!-- Generator: Adobe Illustrator 23.0.0, SVG Export Plug-In . SVG Version: 6.00 Build 0)  -->
<svg version="1.1" xmlns="http://www.w3.org/2000/svg" xmlns:xlink="http://www.w3.org/1999/xlink" x="0px" y="0px"
	 viewBox="0 0 1920 99.5" style="enable-background:new 0 0 1920 99.5;" xml:space="preserve">
<style type="text/css">
	.st0{fill:#FFFFFF;}
</style>
	<path class="st0" d="M344.13,107.46c-0.03-0.79-0.09-1.58-0.15-2.37l484.95,14.6l0-0.11c7.73-0.21,14.93-1.8,21.07-4.45
		c164.23,24.68,518.1,12.53,521.12,12.76c9.5,0.73,18.16-1.73,23.62-6.07l264.46-5.03c4.3,4.58,10.25,7.77,17.14,8.65l327.88,9.89
		V47.71c-11.97-14.03-29.97-24.09-51.07-26.77c-25.89-3.29-50.33,5.3-66.35,21.08c-5.71-4.97-13-8.39-21.24-9.44
		c-7.94-1.01-15.64,0.33-22.34,3.45c-10.39-9.25-28.27-15.16-48.46-14.78c-28.07,0.53-51.14,13.07-55.65,29.11
		c-10.17-9.93-28.69-16.38-49.73-15.98c-16.18,0.31-30.69,4.61-40.96,11.27c-7.43-22.85-41.4-39.64-81.81-38.87
		c-41.54,0.79-63.35,6.46-68.38,30.5c-10.21-5.14-31.75-6.22-45.32-4.77c-13.53,1.45-22.32,6.25-30.09,8.8
		c-17.13-18.52-43.18-27.13-79.55-26.43c-12.73,0.24-24.74,2.2-35.43,5.5c-9.99-3.84-21.24-6.43-33.26-7.35
		c-32.27-2.48-61.26,7.61-76.07,24.35c-4.79-1.84-10.18-3.08-15.94-3.52c-9.73-0.75-18.84,0.9-26.03,4.22
		c-3.85-10.91-18.09-19.75-35.79-21.11c-12.9-0.99-24.7,2.21-32.39,7.96c-12.99-9.52-31.68-16.24-52.89-17.87
		c-26.02-2-49.68,4.14-64.42,15.12c-6.06-3.36-13.58-5.63-21.86-6.27c-21.07-1.62-39.22,7.96-41.24,21.53
		c-6.65-5.14-16.13-8.73-26.89-9.55c-11.07-0.85-21.33,1.39-28.88,5.68c-4.37-11.61-19.65-20.97-38.58-22.43
		c-18.38-1.41-34.7,5.05-41.49,15.3c-6.33-1.69-13.14-2.72-20.26-2.93c-27.66-0.83-51.53,10.74-60.35,27.5
		c-5.88-2.26-12.57-3.65-19.72-3.86c-11.04-0.33-21.22,2.18-29.05,6.59c-3.54-20.93-29.13-37.73-60.73-38.68
		c-30.74-0.93-56.79,13.47-62.72,33.28c-7.74-5.85-18.73-9.68-31.03-10.06c-16.01-0.48-30.18,5.01-38.03,13.58
		c-3.24-13.98-20.64-25.02-42-25.67c-22.33-0.67-41.09,10.26-44.1,24.98c-6.81-3.37-15.06-5.46-23.99-5.73
		c-9.51-0.29-18.37,1.54-25.65,4.86c-11.42-9.03-25.54-15.22-41.32-17.22c-32.11-4.08-62.33,10.2-79.08,34.35
		c-4.6-2.74-9.87-4.63-15.6-5.35c-9.69-1.23-19.01,1.04-26.6,5.77c-2.64-15.93-15.94-29-33.55-31.23
		c-12.83-1.63-25.04,2.87-33.4,11.12C72.98,33.67,54.98,23.61,33.88,20.94C8,17.65-16.44,26.24-32.46,42.02l11.5,79.36
		L344.13,107.46z"/>
</svg>
